<?xml version="1.0" encoding="UTF-8"?>
<svg id="Layer_1" data-name="Layer 1" xmlns="http://www.w3.org/2000/svg" viewBox="0 0 97.36 135.45">
  <defs>
    <style>
      .cls-1 {
        letter-spacing: 0em;
      }

      .cls-2 {
        letter-spacing: 0em;
      }

      .cls-3 {
        stroke-width: 0px;
      }

      .cls-4 {
        letter-spacing: -.01em;
      }

      .cls-5 {
        font-family: AcuminConcept-Bold, 'Acumin Variable Concept';
        font-size: 14px;
        font-variation-settings: 'wght' 700, 'wdth' 100, 'slnt' 0;
        font-weight: 700;
      }
    </style>
  </defs>
  <g>
    <path class="cls-3" d="m21.12,24.3h4.07l4.67,14.99h-3.6l-1.93-7.59c-.38-1.5-.84-3.25-1.2-4.83h-.09c-.37,1.58-.78,3.34-1.16,4.83l-1.95,7.59h-3.47l4.67-14.99Zm-1.58,8.78h7.17v2.64h-7.17v-2.64Z"/>
    <path class="cls-3" d="m31.35,37.23l7-10.1h-6.35v-2.84h10.55v2.05l-7.01,10.1h7.09v2.84h-11.28v-2.05Z"/>
    <path class="cls-3" d="m49.06,27.14h-4.49v-2.84h12.38v2.84h-4.49v12.14h-3.39v-12.14Z"/>
    <path class="cls-3" d="m59.78,24.3h9.93v2.84h-6.54v3h5.56v2.84h-5.56v3.45h6.77v2.84h-10.16v-14.99Z"/>
    <path class="cls-3" d="m72.7,31.87c0-4.97,3.14-7.85,7.16-7.85,1.9,0,3.46.91,4.47,1.91l-1.87,2.1c-.72-.66-1.52-1.07-2.6-1.07-2.13,0-3.68,1.81-3.68,4.81s1.55,4.87,3.81,4.87c1.08,0,1.97-.53,2.7-1.32l1.87,2.05c-1.22,1.45-2.9,2.2-4.92,2.2-3.72,0-6.94-2.63-6.94-7.69Z"/>
  </g>
  <g>
    <path class="cls-3" d="m15.11,66.28h3.93v-8.44h-3.24v-2.1c1.97-.3,3.01-.66,4.14-1.33h2.49v11.87h3.32v2.73h-10.64v-2.73Z"/>
    <path class="cls-3" d="m32.3,56.87h-4.49v-2.84h12.38v2.84h-4.49v12.14h-3.39v-12.14Z"/>
    <path class="cls-3" d="m42.59,54.02h5.04c3.11,0,5.49.85,5.49,3.71,0,1.35-.8,2.78-2.56,3.24v.09c2.14.39,3.26,1.52,3.26,3.53,0,3.05-2.5,4.42-5.76,4.42h-5.47v-14.99Zm4.88,6.01c1.65,0,2.33-.7,2.33-1.83s-.73-1.55-2.31-1.55h-1.52v3.38h1.5Zm.31,6.33c1.85,0,2.73-.67,2.73-2.03s-.86-1.86-2.73-1.86h-1.81v3.89h1.81Z"/>
  </g>
  <g>
    <path class="cls-3" d="m5.72,7.11c0-3.03,1.92-4.78,4.36-4.78,1.16,0,2.11.55,2.72,1.16l-1.14,1.28c-.44-.4-.93-.66-1.59-.66-1.3,0-2.24,1.1-2.24,2.93s.95,2.97,2.32,2.97c.66,0,1.2-.32,1.64-.81l1.14,1.25c-.75.88-1.77,1.34-3,1.34-2.27,0-4.23-1.6-4.23-4.68Z"/>
    <path class="cls-3" d="m14.83,2.49h6.07v1.73h-4v2.12h3.42v1.73h-3.42v3.55h-2.07V2.49Z"/>
    <path class="cls-3" d="m23.05,2.49h6.05v1.73h-3.99v1.83h3.39v1.73h-3.39v2.1h4.12v1.73h-6.19V2.49Z"/>
    <path class="cls-3" d="m33.09,8.01l-2.25-3.34h2.21l.71,1.12c.21.39.49.8.72,1.19h.06c.18-.38.4-.8.58-1.19l.61-1.12h2.15l-2.27,3.57,2.41,3.38h-2.22l-.79-1.14c-.25-.39-.54-.82-.8-1.21h-.06c-.21.4-.44.8-.65,1.22l-.69,1.14h-2.15l2.41-3.61Z"/>
    <path class="cls-3" d="m39.57,4.67h1.68l.15.71h.05c.56-.51,1.32-.88,2.07-.88,1.73,0,2.79,1.39,2.79,3.53,0,2.38-1.46,3.75-3.02,3.75-.61,0-1.21-.27-1.71-.75h-.05l.1,1.13v2.03h-2.06V4.67Zm4.63,3.39c0-1.25-.41-1.87-1.28-1.87-.44,0-.85.19-1.28.64v2.8c.39.34.83.46,1.19.46.76,0,1.37-.6,1.37-2.04Z"/>
    <path class="cls-3" d="m48.57,4.67h1.69l.16,1.52h.05c.68-1.14,1.71-1.69,2.82-1.69.61,0,.93.1,1.33.28l-.42,1.73c-.44-.13-.72-.2-1.23-.2-.86,0-1.75.45-2.35,1.69v3.61h-2.06v-6.95Z"/>
    <path class="cls-3" d="m56.13,8.14c0-2.27,1.75-3.64,3.62-3.64,2.14,0,3.27,1.45,3.27,3.33,0,.38-.06.75-.09.92h-5.27v-1.38h3.88l-.32.39c0-1.12-.49-1.7-1.4-1.7-1.02,0-1.69.69-1.69,2.07s.79,2.08,2.14,2.08c.63,0,1.17-.17,1.79-.48l.68,1.24c-.79.51-1.82.81-2.75.81-2.17,0-3.85-1.34-3.85-3.65Z"/>
    <path class="cls-3" d="m64.5,10.72l.88-1.29c.86.53,1.81.82,2.8.82.76,0,1.1-.25,1.1-.6,0-.39-.34-.53-1.7-.82-1.89-.41-2.64-1.1-2.64-2.17,0-1.29,1.21-2.17,3.19-2.17,1.24,0,2.29.49,3.01.95l-.92,1.24c-.7-.42-1.51-.66-2.27-.66-.64,0-.96.23-.96.56,0,.39.43.48,1.6.74,2.14.48,2.74,1.09,2.74,2.22,0,1.26-1.2,2.24-3.43,2.24-1.24,0-2.52-.48-3.4-1.06Z"/>
    <path class="cls-3" d="m72.9,10.72l.88-1.29c.86.53,1.81.82,2.8.82.76,0,1.1-.25,1.1-.6,0-.39-.34-.53-1.7-.82-1.89-.41-2.64-1.1-2.64-2.17,0-1.29,1.21-2.17,3.19-2.17,1.24,0,2.29.49,3.01.95l-.92,1.24c-.7-.42-1.51-.66-2.27-.66-.64,0-.96.23-.96.56,0,.39.43.48,1.61.74,2.14.48,2.74,1.09,2.74,2.22,0,1.26-1.2,2.24-3.43,2.24-1.24,0-2.52-.48-3.4-1.06Z"/>
    <path class="cls-3" d="m89.99,2.49h3.07c1.9,0,3.34.52,3.34,2.26,0,.82-.49,1.69-1.56,1.97v.06c1.3.24,1.99.93,1.99,2.15,0,1.86-1.52,2.69-3.51,2.69h-3.33V2.49Zm2.98,3.66c1,0,1.42-.42,1.42-1.11s-.45-.94-1.41-.94h-.93v2.06h.91Zm.19,3.86c1.12,0,1.66-.41,1.66-1.24s-.52-1.13-1.66-1.13h-1.1v2.37h1.1Z"/>
  </g>
  <text class="cls-5" transform="translate(0 89.67)"><tspan class="cls-4" x="0" y="0">1</tspan><tspan x="5.42" y="0">8</tspan><tspan class="cls-2" x="13.59" y="0">0</tspan><tspan x="21.99" y="0">0</tspan><tspan class="cls-1" x="30.27" y="0">M</tspan><tspan x="42.69" y="0">B/s</tspan></text>
  <path class="cls-3" d="m69.63,102.29v18.65h-14.35v10.05h10.23v-3.42h-7.48v-3.68h11.57l.03,11.31h-18.53v-14.26h-10.29v10.05h3.52v-7.1h3.67v11.31h-11.11v-18.39h14.2v-10.23h-10.17v3.25h7.25v3.76h-11.28v-11.31h18.39v14.53h10.23v-10.23h-3.46v7.01h-3.79v-11.31h11.37Z"/>
</svg>